<svg width="18" height="17" viewBox="0 0 18 17" fill="none" xmlns="http://www.w3.org/2000/svg">
<path fill-rule="evenodd" clip-rule="evenodd" d="M4.83268 7.33317C4.83268 6.87317 5.20602 6.49984 5.66602 6.49984C6.12602 6.49984 6.49935 6.87317 6.49935 7.33317C6.49935 7.79317 6.12602 8.1665 5.66602 8.1665C5.20602 8.1665 4.83268 7.79317 4.83268 7.33317ZM8.99935 6.49984C8.53935 6.49984 8.16602 6.87317 8.16602 7.33317C8.16602 7.79317 8.53935 8.1665 8.99935 8.1665C9.45935 8.1665 9.83268 7.79317 9.83268 7.33317C9.83268 6.87317 9.45935 6.49984 8.99935 6.49984ZM12.3327 6.49984C11.8727 6.49984 11.4993 6.87317 11.4993 7.33317C11.4993 7.79317 11.8727 8.1665 12.3327 8.1665C12.7927 8.1665 13.166 7.79317 13.166 7.33317C13.166 6.87317 12.7927 6.49984 12.3327 6.49984ZM15.666 11.4998C15.666 11.959 15.2918 12.3332 14.8327 12.3332H6.12768C5.67518 12.3332 5.23018 12.4565 4.84102 12.6898L2.33268 14.1948V3.1665C2.33268 2.70734 2.70685 2.33317 3.16602 2.33317H14.8327C15.2918 2.33317 15.666 2.70734 15.666 3.1665V11.4998ZM14.8327 0.666504H3.16602C1.78768 0.666504 0.666016 1.78817 0.666016 3.1665V15.6665C0.666016 15.9665 0.827682 16.244 1.08852 16.3915C1.21602 16.464 1.35768 16.4998 1.49935 16.4998C1.64768 16.4998 1.79602 16.4607 1.92852 16.3807L5.69852 14.119C5.82852 14.0407 5.97685 13.9998 6.12768 13.9998H14.8327C16.211 13.9998 17.3327 12.8782 17.3327 11.4998V3.1665C17.3327 1.78817 16.211 0.666504 14.8327 0.666504Z" fill="#888888"/>
</svg>
