<svg width="20" height="20" viewBox="0 0 20 20" fill="none" xmlns="http://www.w3.org/2000/svg">
<path fill-rule="evenodd" clip-rule="evenodd" d="M7.9997 12H4.9997C4.4477 12 3.9997 11.552 3.9997 11C3.9997 10.448 4.4477 10 4.9997 10H7.9997C8.5517 10 8.9997 10.448 8.9997 11C8.9997 11.552 8.5517 12 7.9997 12ZM3.9997 15C3.9997 14.448 4.4477 14 4.9997 14H10.9997C11.5527 14 11.9997 14.448 11.9997 15C11.9997 15.552 11.5527 16 10.9997 16H4.9997C4.4477 16 3.9997 15.552 3.9997 15ZM13.444 18H2.555C2.249 18 2 17.776 2 17.5V2.5C2 2.224 2.249 2 2.555 2H8V5.15C8 6.722 9.217 8 10.714 8H14V17.5C14 17.776 13.751 18 13.444 18ZM10 2.978L12.742 6H10.714C10.32 6 10 5.619 10 5.15V2.978ZM15.74 6.328L10.296 0.328C10.106 0.119 9.838 0 9.555 0H2.555C1.146 0 0 1.122 0 2.5V17.5C0 18.878 1.146 20 2.555 20H13.444C14.853 20 16 18.878 16 17.5V7C16 6.751 15.907 6.512 15.74 6.328Z" fill="#BCCBDA"/>
</svg>
