<svg width="20" height="20" viewBox="0 0 20 20" fill="none" xmlns="http://www.w3.org/2000/svg">
<path fill-rule="evenodd" clip-rule="evenodd" d="M14 11.586C13.604 11.763 12.825 12 11.5 12C10.376 12 9.399 11.617 8.365 11.212C7.203 10.757 6.001 10.286 4.5 10.286C3.443 10.286 2.624 10.413 2 10.584V9V2.416C2.396 2.239 3.177 2 4.5 2C5.624 2 6.601 2.383 7.635 2.788C8.797 3.243 9.999 3.714 11.5 3.714C12.438 3.714 13.276 3.613 14 3.414V11.586ZM15.268 1.68C14.806 1.346 14.208 1.251 13.669 1.427C13.093 1.614 12.343 1.714 11.5 1.714C10.376 1.714 9.399 1.331 8.365 0.926C7.203 0.471 6.001 0 4.5 0C1.613 0 0.495 0.952 0.3 1.144C0.108 1.331 0 1.589 0 1.857V9V12.143V17C0 17.553 0.447 18 1 18C1.553 18 2 17.553 2 17V12.702C2.395 12.526 3.173 12.286 4.5 12.286C5.624 12.286 6.601 12.669 7.635 13.074C8.797 13.529 9.999 14 11.5 14C13.309 14 14.423 13.622 15.041 13.305C15.633 12.998 16 12.402 16 11.749V3.106C16 2.546 15.727 2.013 15.268 1.68Z" fill="#BCCBDA"/>
</svg>
