<svg width="16" height="16" viewBox="0 0 16 16" fill="none" xmlns="http://www.w3.org/2000/svg">
<path fill-rule="evenodd" clip-rule="evenodd" d="M11.1803 15.4998C10.7663 15.4998 10.4303 15.1646 10.4303 14.7498V12.8006C10.4656 12.3033 10.3163 11.8706 10.0231 11.5563C9.8288 11.3493 9.7688 11.0508 9.8663 10.7853C9.9638 10.5191 10.2023 10.3308 10.4843 10.2986C12.3098 10.0871 14.0003 9.46009 14.0003 6.33034C14.0003 5.73034 13.8263 5.15209 13.4971 4.66009C13.1963 4.21159 13.0868 3.66484 13.1873 3.12034C13.2533 2.76559 13.2496 2.40484 13.1783 2.05609C12.8753 2.14609 12.3563 2.35984 11.6086 2.88034C11.4248 3.00784 11.1916 3.04609 10.9771 2.98609C9.62405 2.60584 8.1938 2.60584 6.84005 2.98609C6.6248 3.04609 6.39305 3.00784 6.2093 2.88034C5.46905 2.36509 4.95305 2.15059 4.63805 2.06209C4.56755 2.40784 4.56455 2.76559 4.6298 3.11809C4.72955 3.65959 4.6163 4.21234 4.3103 4.67584C3.9848 5.17009 3.81455 5.74759 3.81755 6.34759C3.81755 9.26809 5.2268 10.0473 7.34255 10.3196C7.62155 10.3556 7.85705 10.5446 7.95305 10.8093C8.0483 11.0741 7.98755 11.3696 7.79555 11.5751C7.5053 11.8863 7.35605 12.3146 7.3853 12.7503L7.38605 13.3413C7.38755 13.3713 7.38755 13.4013 7.38605 13.4313L7.3868 14.7498C7.3868 15.1646 7.05155 15.4998 6.6368 15.4998C6.2228 15.4998 5.8868 15.1646 5.8868 14.7498V14.3216C3.87305 14.5841 2.72555 13.5048 1.9298 12.7548C1.5998 12.4451 1.2893 12.1518 1.06205 12.0926C0.660805 11.9883 0.420055 11.5788 0.524305 11.1783C0.628555 10.7778 1.03805 10.5333 1.43855 10.6406C2.0378 10.7966 2.4848 11.2173 2.95805 11.6628C3.72455 12.3851 4.45205 13.0691 5.8868 12.8028V12.8006C5.85905 12.4038 5.9183 11.9973 6.05555 11.6126C4.51505 11.2286 2.31755 10.1088 2.31755 6.35134C2.31305 5.45734 2.56955 4.59184 3.0578 3.85009C3.1493 3.71134 3.1838 3.54859 3.15455 3.39034C3.00455 2.57809 3.0908 1.74409 3.4058 0.982092C3.4913 0.775092 3.66455 0.616842 3.8783 0.550842C4.12655 0.474342 5.04155 0.328092 6.7748 1.45309C8.17805 1.11634 9.6398 1.11634 11.0423 1.45309C12.7763 0.328092 13.6906 0.473592 13.9388 0.550842C14.1526 0.616842 14.3258 0.775092 14.4113 0.982092C14.7271 1.74559 14.8133 2.57884 14.6626 3.39334C14.6333 3.55009 14.6626 3.70384 14.7436 3.82609C15.2386 4.56634 15.5003 5.43184 15.5003 6.33034C15.5003 10.1283 13.3081 11.2346 11.7653 11.6051C11.9033 12.0018 11.9611 12.4286 11.9281 12.8583L11.9303 14.7498C11.9303 15.1646 11.5943 15.4998 11.1803 15.4998" fill="#231F20"/>
</svg>
