<svg width="16" height="18" viewBox="0 0 16 18" fill="none" xmlns="http://www.w3.org/2000/svg">
<path fill-rule="evenodd" clip-rule="evenodd" d="M13.825 15.6665H11.3333V9.83319C11.3333 9.37235 10.96 8.99985 10.5 8.99985H5.5C5.03917 8.99985 4.66667 9.37235 4.66667 9.83319V15.6665H2.16667L2.17167 8.65235L7.99833 2.69319L13.8333 8.68652L13.825 15.6665ZM6.33333 15.6666H9.66667V10.6666H6.33333V15.6666ZM15.02 7.48738L8.59583 0.917383C8.28167 0.596549 7.71833 0.596549 7.40417 0.917383L0.979167 7.48822C0.675 7.80072 0.5 8.23738 0.5 8.68655V15.6666C0.5 16.5857 1.20583 17.3332 2.07333 17.3332H5.5H10.5H13.9258C14.7933 17.3332 15.5 16.5857 15.5 15.6666V8.68655C15.5 8.23738 15.325 7.80072 15.02 7.48738V7.48738Z" fill="#BCCBDA"/>
</svg>
