<svg width="20" height="20" viewBox="0 0 20 20" fill="none" xmlns="http://www.w3.org/2000/svg">
<path fill-rule="evenodd" clip-rule="evenodd" d="M11 3C11 3.553 10.552 4 10 4C9.448 4 9 3.553 9 3V1C9 0.447 9.448 0 10 0C10.552 0 11 0.447 11 1V3ZM11 13.4598C11 13.1028 11.191 12.7718 11.501 12.5928C12.426 12.0618 13 11.0678 13 9.9998C13 8.3458 11.654 6.9998 10 6.9998C8.346 6.9998 7 8.3458 7 9.9998C7 11.0678 7.574 12.0618 8.499 12.5928C8.809 12.7718 9 13.1028 9 13.4598V17.9998H11V13.4598ZM5 9.9998C5 7.2428 7.243 4.9998 10 4.9998C12.757 4.9998 15 7.2428 15 9.9998C15 11.5788 14.246 13.0618 13 13.9958V17.9998C13 19.1028 12.103 19.9998 11 19.9998H9C7.897 19.9998 7 19.1028 7 17.9998V13.9958C5.753 13.0618 5 11.5788 5 9.9998ZM19 9H17C16.447 9 16 9.447 16 10C16 10.553 16.447 11 17 11H19C19.553 11 20 10.553 20 10C20 9.447 19.553 9 19 9ZM1 9H3C3.552 9 4 9.447 4 10C4 10.553 3.552 11 3 11H1C0.448 11 0 10.553 0 10C0 9.447 0.448 9 1 9ZM5.6597 4.418L4.2207 3.028C3.8237 2.645 3.1917 2.657 2.8067 3.054C2.4227 3.45 2.4337 4.084 2.8307 4.468L4.2697 5.857C4.4647 6.045 4.7147 6.138 4.9647 6.138C5.2267 6.138 5.4877 6.035 5.6837 5.832C6.0677 5.436 6.0567 4.802 5.6597 4.418ZM15.7794 3.0297C16.1754 2.6467 16.8114 2.6577 17.1924 3.0537C17.5764 3.4497 17.5654 4.0837 17.1684 4.4667L15.7294 5.8567C15.5364 6.0437 15.2854 6.1377 15.0354 6.1377C14.7734 6.1377 14.5114 6.0347 14.3164 5.8317C13.9324 5.4357 13.9434 4.8017 14.3404 4.4187L15.7794 3.0297Z" fill="#BCCBDA"/>
</svg>
