<svg width="18" height="18" viewBox="0 0 18 18" fill="none" xmlns="http://www.w3.org/2000/svg">
<path fill-rule="evenodd" clip-rule="evenodd" d="M8.16602 5.6665C8.16602 5.2065 8.53935 4.83317 8.99935 4.83317C9.45935 4.83317 9.83268 5.2065 9.83268 5.6665V9.83317C9.83268 10.2932 9.45935 10.6665 8.99935 10.6665C8.53935 10.6665 8.16602 10.2932 8.16602 9.83317V5.6665ZM8.16602 12.3332C8.16602 11.8732 8.53935 11.4998 8.99935 11.4998C9.45935 11.4998 9.83268 11.8732 9.83268 12.3332C9.83268 12.7932 9.45935 13.1665 8.99935 13.1665C8.53935 13.1665 8.16602 12.7932 8.16602 12.3332ZM8.99935 15.6665C5.32352 15.6665 2.33268 12.6757 2.33268 8.99984C2.33268 5.324 5.32352 2.33317 8.99935 2.33317C12.6752 2.33317 15.666 5.324 15.666 8.99984C15.666 12.6757 12.6752 15.6665 8.99935 15.6665ZM8.99935 0.666504C4.39685 0.666504 0.666016 4.39734 0.666016 8.99984C0.666016 13.6023 4.39685 17.3332 8.99935 17.3332C13.6018 17.3332 17.3327 13.6023 17.3327 8.99984C17.3327 4.39734 13.6018 0.666504 8.99935 0.666504Z" fill="#888888"/>
</svg>
