<svg width="16" height="16" viewBox="0 0 16 16" fill="none" xmlns="http://www.w3.org/2000/svg">
<path fill-rule="evenodd" clip-rule="evenodd" d="M8.834 0.0656561C7.494 -0.0873439 6.5 1.04766 6.5 2.24966V2.74966C6.5 4.07866 5.853 4.87366 5.182 5.36366C4.854 5.60366 4.522 5.76666 4.264 5.87166C4.11016 5.60641 3.88932 5.38624 3.62361 5.2332C3.35789 5.08016 3.05663 4.99962 2.75 4.99966H1.75C1.28587 4.99966 0.840752 5.18403 0.512563 5.51222C0.184374 5.84041 0 6.28553 0 6.74966L0 14.2497C0 15.2157 0.784 15.9997 1.75 15.9997H2.75C3.11814 15.9997 3.47694 15.8837 3.77533 15.6681C4.07372 15.4525 4.29651 15.1482 4.412 14.7987C4.937 14.8737 5.479 15.0277 6.137 15.2137C6.289 15.2567 6.447 15.3017 6.612 15.3467C7.766 15.6667 9.152 15.9997 11 15.9997C12.706 15.9997 13.97 15.8467 14.722 14.8597C15.075 14.3967 15.259 13.8177 15.39 13.1877C15.508 12.6277 15.598 11.9447 15.703 11.1547L15.743 10.8487C15.993 8.97966 16.008 7.53066 15.555 6.53266C15.3287 6.0115 14.9262 5.58666 14.418 5.33266C13.924 5.08466 13.353 4.99966 12.75 4.99966H11.328L11.343 4.88666C11.413 4.36866 11.5 3.71666 11.5 3.24966C11.5 2.32766 11.349 1.53066 10.844 0.949656C10.334 0.360656 9.597 0.152656 8.834 0.0656561ZM4.5 13.2997C5.205 13.3877 5.89 13.5837 6.572 13.7777L7.013 13.9027C8.109 14.2077 9.347 14.5007 11 14.5007C12.794 14.5007 13.28 14.2777 13.528 13.9517C13.675 13.7587 13.804 13.4467 13.922 12.8817C14.027 12.3797 14.11 11.7577 14.217 10.9517L14.257 10.6517C14.507 8.76966 14.446 7.71866 14.189 7.15466C14.1051 6.94613 13.9479 6.77543 13.747 6.67466C13.539 6.57066 13.227 6.50066 12.75 6.50066H11C10.314 6.50066 9.705 5.92366 9.794 5.16466C9.817 4.97266 9.844 4.77466 9.87 4.57866C9.935 4.09066 10 3.60866 10 3.25066C10 2.44166 9.856 2.10066 9.712 1.93466C9.575 1.77666 9.31 1.63066 8.664 1.55666C8.357 1.52066 8 1.79266 8 2.24966V2.74966C8 4.67166 7.022 5.87766 6.067 6.57466C5.58852 6.92216 5.06021 7.19526 4.5 7.38466V13.2997ZM2.75 6.49966C2.8163 6.49966 2.87989 6.526 2.92678 6.57288C2.97366 6.61976 3 6.68335 3 6.74966V14.2497C3 14.316 2.97366 14.3795 2.92678 14.4264C2.87989 14.4733 2.8163 14.4997 2.75 14.4997H1.75C1.6837 14.4997 1.62011 14.4733 1.57322 14.4264C1.52634 14.3795 1.5 14.316 1.5 14.2497V6.74966C1.5 6.68335 1.52634 6.61976 1.57322 6.57288C1.62011 6.526 1.6837 6.49966 1.75 6.49966H2.75Z" fill="#888888"/>
</svg>
