<svg width="16" height="16" viewBox="0 0 16 16" fill="none" xmlns="http://www.w3.org/2000/svg">
<path fill-rule="evenodd" clip-rule="evenodd" d="M7.64497 1.9248C9.28147 0.284547 11.9222 -0.0117033 13.7462 1.4148C15.931 3.1233 16.0742 6.30705 14.176 8.2098L13.1087 9.27855C12.814 9.57405 12.337 9.57405 12.0422 9.27855C11.7475 8.9838 11.7475 8.50455 12.0422 8.2098L13.1087 7.1403C14.35 5.89755 14.2825 3.8313 12.9047 2.6778C11.6845 1.65555 9.85297 1.85055 8.72872 2.97705L7.77397 3.9333C7.47997 4.2288 7.00147 4.2288 6.70747 3.9333C6.41272 3.63855 6.40972 3.1623 6.84022 2.73105L7.64497 1.9248ZM8.96957 5.96975L5.96957 8.96975C5.67632 9.263 5.67632 9.737 5.96957 10.0302C6.11582 10.1765 6.30782 10.25 6.49982 10.25C6.69182 10.25 6.88382 10.1765 7.03007 10.0302L10.0301 7.03025C10.3233 6.737 10.3233 6.263 10.0301 5.96975C9.73682 5.6765 9.26282 5.6765 8.96957 5.96975ZM8.20995 12.0474L7.25445 13.0006C6.1287 14.1234 4.29345 14.3169 3.07245 13.2991C1.6932 12.1501 1.62495 10.0906 2.8677 8.85087L3.93645 7.78587C4.2312 7.49187 4.2312 7.01487 3.93645 6.72012C3.6417 6.42687 3.1632 6.42687 2.8677 6.72012L1.91145 7.67487C0.282451 9.29937 -0.0032986 11.9124 1.4052 13.7304C3.10845 15.9301 6.30345 16.0786 8.20995 14.1781L9.2787 13.1131C9.57345 12.8184 9.57345 12.3421 9.2787 12.0474C8.9832 11.7526 8.50545 11.7526 8.20995 12.0474Z" fill="#7E84FF"/>
</svg>
