<svg width="37" height="42" viewBox="0 0 37 42" fill="none" xmlns="http://www.w3.org/2000/svg">
<path d="M18.4961 4.08382L25.5598 8.11403L29.1414 6.07659L18.4961 0L0.714844 10.1515L4.27833 12.1889L18.4961 4.08382Z" fill="#414042"/>
<path d="M32.7043 8.11377L18.4956 16.2189L11.4319 12.1887L7.85938 14.2261L18.4956 20.2938L36.2859 10.1512L32.7043 8.11377Z" fill="#414042"/>
<path d="M3.57254 21.7508L0 19.7134V31.8487L17.7813 42.0002V37.9253L3.57254 29.8112V21.7508Z" fill="#414042"/>
<path d="M0 15.6384L14.2087 23.7435V31.8039L17.7813 33.8503V21.706L0 11.5635V15.6384Z" fill="#6772E5"/>
<path d="M29.8562 19.7131V15.6382L19.2109 21.7058V41.9999L22.7835 39.9624V23.7433L29.8562 19.7131Z" fill="#6772E5"/>
<path d="M33.4182 13.6009V29.8111L26.3545 33.8503V37.9251L36.9997 31.8486V11.5635L33.4182 13.6009Z" fill="#414042"/>
</svg>
