<svg width="16" height="16" viewBox="0 0 16 16" fill="none" xmlns="http://www.w3.org/2000/svg">
<path fill-rule="evenodd" clip-rule="evenodd" d="M13.5751 11.3028L8.83342 13.5061V7.90945L13.8334 5.58695V10.9494C13.8334 11.0944 13.7351 11.2294 13.5751 11.3028V11.3028ZM2.41924 11.3036C2.26174 11.2303 2.16508 11.0953 2.16674 10.9436V5.58695L7.16675 7.90945V13.5078L2.41924 11.3036ZM7.75593 2.2202C7.83176 2.18437 7.91593 2.16687 8.00009 2.16687C8.08343 2.16687 8.16759 2.18437 8.24343 2.2202L12.6843 4.28187L8.00009 6.45853L3.31509 4.28187L7.75593 2.2202ZM15.2134 4.04944C15.2109 4.04277 15.2117 4.03527 15.2084 4.02861C15.2059 4.02194 15.1992 4.01777 15.1951 4.01111C15.1567 3.94777 15.1101 3.89194 15.0659 3.83361C15.0401 3.80527 15.0192 3.77361 14.9909 3.74944C14.7951 3.51944 14.5642 3.31694 14.2776 3.18444L8.94424 0.706941C8.9434 0.706941 8.94257 0.706941 8.94257 0.706107C8.3434 0.429441 7.6559 0.430274 7.05507 0.706941L1.72424 3.18361C1.43757 3.31611 1.2059 3.51777 1.01007 3.74777C0.979236 3.77361 0.956736 3.80861 0.929236 3.83944C0.885902 3.89527 0.841736 3.94944 0.805069 4.00944C0.800902 4.01694 0.794236 4.02194 0.790902 4.02861C0.787569 4.03611 0.788402 4.04361 0.785069 4.05111C0.609236 4.35277 0.500069 4.69194 0.500069 5.04861V10.9378C0.493402 11.7294 0.970069 12.4661 1.71507 12.8144L7.04757 15.2911C7.34924 15.4319 7.67257 15.5019 7.99674 15.5019C8.32007 15.5019 8.6434 15.4319 8.94424 15.2919L14.2751 12.8153C15.0184 12.4719 15.4992 11.7403 15.5001 10.9503V5.04777C15.4992 4.69111 15.3901 4.35194 15.2134 4.04944V4.04944Z" fill="#BCCBDA"/>
</svg>
