<svg width="14" height="14" viewBox="0 0 14 14" fill="none" xmlns="http://www.w3.org/2000/svg">
<path fill-rule="evenodd" clip-rule="evenodd" d="M5.1 1.70065C4.19826 1.70065 3.33346 2.05886 2.69584 2.69649C2.05821 3.33411 1.7 4.19892 1.7 5.10065C1.7 6.00239 2.05821 6.86719 2.69584 7.50482C3.33346 8.14244 4.19826 8.50065 5.1 8.50065C6.00174 8.50065 6.86654 8.14244 7.50416 7.50482C8.14179 6.86719 8.5 6.00239 8.5 5.10065C8.5 4.19892 8.14179 3.33411 7.50416 2.69649C6.86654 2.05886 6.00174 1.70065 5.1 1.70065ZM9.64422e-08 5.10065C-0.000102331 4.298 0.189246 3.50666 0.552646 2.79098C0.916045 2.07531 1.44323 1.45551 2.09134 0.981998C2.73944 0.508487 3.49015 0.194632 4.28242 0.0659594C5.07469 -0.0627128 5.88615 -0.00256912 6.65079 0.241499C7.41544 0.485567 8.11168 0.906668 8.68289 1.47055C9.2541 2.03444 9.68416 2.72518 9.93808 3.48661C10.192 4.24804 10.2626 5.05865 10.1442 5.85252C10.0257 6.64639 9.7216 7.40109 9.2565 8.05525L13.3509 12.1497C13.5058 12.31 13.5915 12.5247 13.5895 12.7476C13.5876 12.9705 13.4982 13.1837 13.3406 13.3412C13.183 13.4988 12.9698 13.5882 12.7469 13.5902C12.5241 13.5921 12.3094 13.5064 12.149 13.3516L8.05545 9.258C7.29246 9.80054 6.39484 10.1226 5.46097 10.1889C4.5271 10.2551 3.59301 10.063 2.76105 9.63368C1.9291 9.20431 1.23138 8.55422 0.744365 7.75465C0.257346 6.95508 -0.000181943 6.03687 9.64422e-08 5.10065V5.10065Z" fill="#C4C8CC"/>
</svg>
