<svg width="18" height="18" viewBox="0 0 18 18" fill="none" xmlns="http://www.w3.org/2000/svg">
<g id="Icon/Outline/search">
<path id="Mask" fill-rule="evenodd" clip-rule="evenodd" d="M3.75 8.25C3.75 5.76825 5.76825 3.75 8.25 3.75C10.7318 3.75 12.75 5.76825 12.75 8.25C12.75 10.7318 10.7318 12.75 8.25 12.75C5.76825 12.75 3.75 10.7318 3.75 8.25ZM15.5303 14.4697L12.984 11.9228C13.7738 10.9073 14.25 9.6345 14.25 8.25C14.25 4.94175 11.5582 2.25 8.25 2.25C4.94175 2.25 2.25 4.94175 2.25 8.25C2.25 11.5582 4.94175 14.25 8.25 14.25C9.6345 14.25 10.9073 13.7738 11.9228 12.984L14.4697 15.5303C14.616 15.6765 14.808 15.75 15 15.75C15.192 15.75 15.384 15.6765 15.5303 15.5303C15.8235 15.237 15.8235 14.763 15.5303 14.4697Z" fill="#6B7280"/>
<mask id="mask0" mask-type="alpha" maskUnits="userSpaceOnUse" x="2" y="2" width="14" height="14">
<path id="Mask_2" fill-rule="evenodd" clip-rule="evenodd" d="M3.75 8.25C3.75 5.76825 5.76825 3.75 8.25 3.75C10.7318 3.75 12.75 5.76825 12.75 8.25C12.75 10.7318 10.7318 12.75 8.25 12.75C5.76825 12.75 3.75 10.7318 3.75 8.25ZM15.5303 14.4697L12.984 11.9228C13.7738 10.9073 14.25 9.6345 14.25 8.25C14.25 4.94175 11.5582 2.25 8.25 2.25C4.94175 2.25 2.25 4.94175 2.25 8.25C2.25 11.5582 4.94175 14.25 8.25 14.25C9.6345 14.25 10.9073 13.7738 11.9228 12.984L14.4697 15.5303C14.616 15.6765 14.808 15.75 15 15.75C15.192 15.75 15.384 15.6765 15.5303 15.5303C15.8235 15.237 15.8235 14.763 15.5303 14.4697Z" fill="white"/>
</mask>
<g mask="url(#mask0)">
<g id="&#240;&#159;&#142;&#168; Color">
<rect id="Base" width="18" height="18" fill="#6B7280"/>
</g>
</g>
</g>
</svg>
